<svg width="420" height="420" viewBox="0 0 420 420" fill="none" xmlns="http://www.w3.org/2000/svg">
<rect width="420" height="420" rx="40" fill="#DD88CF"/>
<g filter="url(#filter0_f_3003_2)">
<path d="M340.308 337.62C316.448 358.617 287.18 372.505 255.826 377.707C224.472 382.91 192.287 379.218 162.925 367.052C133.563 354.885 108.199 334.731 89.7131 308.877C71.2271 283.023 60.3591 252.505 58.3425 220.786C56.326 189.067 63.2417 157.418 78.3047 129.431C93.3676 101.445 115.975 78.2408 143.56 62.454C171.145 46.6672 202.603 38.9294 234.363 40.1191C266.124 41.3088 296.915 51.3783 323.242 69.1846L228 210L340.308 337.62Z" fill="#4B164C"/>
</g>
<g filter="url(#filter1_d_3003_2)">
<path d="M319.987 317.062C299.442 335.143 274.238 347.101 247.239 351.581C220.239 356.061 192.525 352.882 167.241 342.406C141.957 331.929 120.116 314.574 104.197 292.311C88.2789 270.048 78.9203 243.768 77.1838 216.455C75.4474 189.141 81.4025 161.888 94.3734 137.788C107.344 113.688 126.811 93.7074 150.565 80.1132C174.319 66.5189 201.408 59.8559 228.757 60.8804C256.107 61.9048 282.621 70.5758 305.292 85.9089L223.278 207.167L319.987 317.062Z" fill="#F8E7F6"/>
</g>
<ellipse cx="219.198" cy="207.198" rx="96.1984" ry="96.1984" fill="#DD88CF"/>
<defs>
<filter id="filter0_f_3003_2" x="32.9999" y="15" width="332.308" height="390" filterUnits="userSpaceOnUse" color-interpolation-filters="sRGB">
<feFlood flood-opacity="0" result="BackgroundImageFix"/>
<feBlend mode="normal" in="SourceGraphic" in2="BackgroundImageFix" result="shape"/>
<feGaussianBlur stdDeviation="12.5" result="effect1_foregroundBlur_3003_2"/>
</filter>
<filter id="filter1_d_3003_2" x="66.8888" y="60.7778" width="255.099" height="304.778" filterUnits="userSpaceOnUse" color-interpolation-filters="sRGB">
<feFlood flood-opacity="0" result="BackgroundImageFix"/>
<feColorMatrix in="SourceAlpha" type="matrix" values="0 0 0 0 0 0 0 0 0 0 0 0 0 0 0 0 0 0 127 0" result="hardAlpha"/>
<feOffset dx="-4" dy="6"/>
<feGaussianBlur stdDeviation="3"/>
<feComposite in2="hardAlpha" operator="out"/>
<feColorMatrix type="matrix" values="0 0 0 0 0 0 0 0 0 0 0 0 0 0 0 0 0 0 0.5 0"/>
<feBlend mode="normal" in2="BackgroundImageFix" result="effect1_dropShadow_3003_2"/>
<feBlend mode="normal" in="SourceGraphic" in2="effect1_dropShadow_3003_2" result="shape"/>
</filter>
</defs>
</svg>
